<svg class="svg-icon" style="width: 1em; height: 1em;vertical-align: middle;fill: currentColor;overflow: hidden;" viewBox="0 0 1024 1024" version="1.1" xmlns="http://www.w3.org/2000/svg"><path d="M387.584 542.208c0 14.336 9.216 26.624 20.48 27.136 8.192 50.176 42.496 87.552 83.456 87.552s75.776-37.888 83.456-87.552h1.536c11.776 0 21.504-12.288 21.504-27.136 0-13.312-7.68-24.576-17.408-26.624 0 0 23.04-77.824-25.088-99.84-6.144-67.072-123.904-14.336-123.904-14.336-60.416 31.744-31.232 116.736-31.232 116.736-7.68 3.584-12.8 13.312-12.8 24.064z m22.016-21.504h2.048V514.56l6.144-36.352c4.096-6.144 7.68-9.728 7.68-9.728 53.76 2.56 95.744-24.064 95.744-24.064 35.84-27.648 47.104 77.824 47.104 77.824h1.024l4.608-1.024h2.56c4.096 0 7.68 2.048 10.752 5.632 3.072 4.096 5.12 9.728 5.12 15.36 0 6.144-2.048 11.776-5.12 15.872-3.072 3.584-6.656 5.632-10.752 5.632h-1.024l-5.632-0.512-1.024 5.12c-3.584 23.552-13.824 44.544-27.648 59.392-7.168 7.168-14.848 13.312-23.04 16.896-8.704 4.096-17.408 6.144-27.136 6.144-9.216 0-18.432-2.048-26.624-6.144-8.704-4.096-16.384-9.728-23.04-16.896-14.336-15.36-24.064-36.352-27.648-59.392l-0.512-4.608-4.608-0.512c-8.192-0.512-14.848-10.24-14.848-21.504 0-6.144 2.048-11.264 5.12-15.36 2.56-3.584 6.656-5.632 10.752-5.632z" fill="#040000" /><path d="M587.264 656.384l-74.24 124.928-9.216-56.32c6.144-3.584 10.24-10.24 10.24-17.92 0-11.776-9.728-21.504-21.504-21.504-11.776 0-21.504 9.728-21.504 21.504 0 7.68 4.096 14.336 10.24 17.92l-8.704 55.296-73.728-123.904c-41.472 17.92-71.168 47.616-77.312 81.92h-1.536v109.056c0 36.352 77.312 65.536 172.544 65.536s172.544-29.184 172.544-65.536V738.304h-1.536c-5.632-34.816-34.816-64-76.288-81.92z" fill="#040000" /><path d="M715.776 272.896h-131.584c-13.312 37.888-49.152 65.024-91.648 65.024-41.984 0-78.336-27.136-91.648-65.024h-131.584c-57.856 0-104.96 47.104-104.96 104.96V909.824c0 57.856 47.104 104.96 104.96 104.96h445.44c57.856 0 104.96-47.104 104.96-104.96V377.856c1.536-57.856-45.568-104.96-103.936-104.96z m17.408 636.928c0 9.728-7.68 17.408-17.408 17.408h-445.44c-9.728 0-17.408-7.68-17.408-17.408V377.856c0-9.728 7.68-17.408 17.408-17.408h445.44c9.728 0 17.408 7.68 17.408 17.408V909.824z" fill="#040000" /><path d="M493.056 311.296c38.912 0 70.656-31.744 70.656-70.656v-160.768c0-38.912-31.744-70.656-70.656-70.656s-70.656 31.744-70.656 70.656V240.64c0 38.912 31.744 70.656 70.656 70.656z m0-110.08c22.016 0 39.936 16.896 39.936 37.888 0 20.992-17.92 37.888-39.936 37.888s-39.936-16.896-39.936-37.888c0-20.992 17.92-37.888 39.936-37.888z" fill="#040000" /></svg>